{
  "accessors": [
    {
      "bufferView": 2,
      "componentType": 5126,
      "count": 33540,
      "max": [
        13.123880386352539,
        9.253508567810059,
        13.463150024414063
      ],
      "min": [
        -1.9445680379867554,
        -1.9653912782669067,
        -1.3296828269958496
      ],
      "type": "VEC3"
    },
    {
      "bufferView": 2,
      "byteOffset": 402480,
      "componentType": 5126,
      "count": 33540,
      "max": [
        0.999996542930603,
        0.9999963045120239,
        0.9994606971740723
      ],
      "min": [
        -0.9999970197677612,
        -0.999995231628418,
        -0.9999539852142334
      ],
      "type": "VEC3"
    },
    {
      "bufferView": 1,
      "componentType": 5126,
      "count": 33540,
      "max": [
        1.000000238418579,
        1.0
      ],
      "min": [
        0.0,
        0.0
      ],
      "type": "VEC2"
    },
    {
      "bufferView": 0,
      "componentType": 5125,
      "count": 172800,
      "type": "SCALAR"
    },
    {
      "bufferView": 2,
      "byteOffset": 804960,
      "componentType": 5126,
      "count": 6361,
      "max": [
        0.725727915763855,
        0.2500000298023224,
        0.8453972935676575
      ],
      "min": [
        -0.8889031410217285,
        -0.2500000298023224,
        -0.8453972339630127
      ],
      "type": "VEC3"
    },
    {
      "bufferView": 2,
      "byteOffset": 881292,
      "componentType": 5126,
      "count": 6361,
      "max": [
        0.9917973875999451,
        1.0,
        0.9987883567810059
      ],
      "min": [
        -0.9791830778121948,
        -1.0,
        -0.9987882971763611
      ],
      "type": "VEC3"
    },
    {
      "bufferView": 0,
      "byteOffset": 691200,
      "componentType": 5125,
      "count": 9600,
      "type": "SCALAR"
    },
    {
      "bufferView": 2,
      "byteOffset": 957624,
      "componentType": 5126,
      "count": 6361,
      "max": [
        0.725727915763855,
        0.2500000298023224,
        0.8453972935676575
      ],
      "min": [
        -0.8889031410217285,
        -0.2500000298023224,
        -0.8453972339630127
      ],
      "type": "VEC3"
    },
    {
      "bufferView": 2,
      "byteOffset": 1033956,
      "componentType": 5126,
      "count": 6361,
      "max": [
        0.9917973875999451,
        1.0,
        0.9987883567810059
      ],
      "min": [
        -0.9791830778121948,
        -1.0,
        -0.9987882971763611
      ],
      "type": "VEC3"
    },
    {
      "bufferView": 0,
      "byteOffset": 729600,
      "componentType": 5125,
      "count": 9600,
      "type": "SCALAR"
    },
    {
      "bufferView": 2,
      "byteOffset": 1110288,
      "componentType": 5126,
      "count": 6361,
      "max": [
        0.725727915763855,
        0.2500000298023224,
        0.8453972935676575
      ],
      "min": [
        -0.8889031410217285,
        -0.2500000298023224,
        -0.8453972339630127
      ],
      "type": "VEC3"
    },
    {
      "bufferView": 2,
      "byteOffset": 1186620,
      "componentType": 5126,
      "count": 6361,
      "max": [
        0.9917973875999451,
        1.0,
        0.9987883567810059
      ],
      "min": [
        -0.9791830778121948,
        -1.0,
        -0.9987882971763611
      ],
      "type": "VEC3"
    },
    {
      "bufferView": 0,
      "byteOffset": 768000,
      "componentType": 5125,
      "count": 9600,
      "type": "SCALAR"
    },
    {
      "bufferView": 2,
      "byteOffset": 1262952,
      "componentType": 5126,
      "count": 7276,
      "max": [
        1.120613694190979,
        1.7002005577087402,
        1.1206138134002686
      ],
      "min": [
        -1.120613694190979,
        -1.101686716079712,
        -1.1206135749816895
      ],
      "type": "VEC3"
    },
    {
      "bufferView": 2,
      "byteOffset": 1350264,
      "componentType": 5126,
      "count": 7276,
      "max": [
        0.9958390593528748,
        1.0,
        0.9967440962791443
      ],
      "min": [
        -0.9953830242156982,
        -1.0,
        -0.9971340298652649
      ],
      "type": "VEC3"
    },
    {
      "bufferView": 1,
      "byteOffset": 268320,
      "componentType": 5126,
      "count": 7276,
      "max": [
        1.0000001192092896,
        0.9072768688201904
      ],
      "min": [
        0.0,
        0.014325011521577835
      ],
      "type": "VEC2"
    },
    {
      "bufferView": 0,
      "byteOffset": 806400,
      "componentType": 5125,
      "count": 22272,
      "type": "SCALAR"
    },
    {
      "bufferView": 2,
      "byteOffset": 1437576,
      "componentType": 5126,
      "count": 6296,
      "max": [
        1.1569621562957764,
        2.6344809532165527,
        1.1569623947143555
      ],
      "min": [
        -1.1569617986679077,
        1.6532493829727173,
        -1.1569619178771973
      ],
      "type": "VEC3"
    },
    {
      "bufferView": 2,
      "byteOffset": 1513128,
      "componentType": 5126,
      "count": 6296,
      "max": [
        0.9995911121368408,
        0.9995294809341431,
        0.9995911121368408
      ],
      "min": [
        -0.9995911121368408,
        -0.9996445178985596,
        -0.9995911121368408
      ],
      "type": "VEC3"
    },
    {
      "bufferView": 1,
      "byteOffset": 326528,
      "componentType": 5126,
      "count": 6296,
      "max": [
        1.000000238418579,
        0.8750003576278687
      ],
      "min": [
        0.0,
        0.5
      ],
      "type": "VEC2"
    },
    {
      "bufferView": 0,
      "byteOffset": 895488,
      "componentType": 5125,
      "count": 23808,
      "type": "SCALAR"
    },
    {
      "bufferView": 2,
      "byteOffset": 1588680,
      "componentType": 5126,
      "count": 198,
      "max": [
        0.21845076978206635,
        5.141245365142822,
        0.1309289038181305
      ],
      "min": [
        -0.011549241840839386,
        -0.0329282283782959,
        -0.09907110035419464
      ],
      "type": "VEC3"
    },
    {
      "bufferView": 2,
      "byteOffset": 1591056,
      "componentType": 5126,
      "count": 198,
      "max": [
        0.7278809547424316,
        0.7298645973205566,
        0.7278809547424316
      ],
      "min": [
        -0.7278809547424316,
        -0.7298616766929626,
        -0.7278809547424316
      ],
      "type": "VEC3"
    },
    {
      "bufferView": 1,
      "byteOffset": 376896,
      "componentType": 5126,
      "count": 198,
      "max": [
        1.0,
        1.0
      ],
      "min": [
        0.0,
        0.5
      ],
      "type": "VEC2"
    },
    {
      "bufferView": 0,
      "byteOffset": 990720,
      "componentType": 5125,
      "count": 768,
      "type": "SCALAR"
    },
    {
      "bufferView": 2,
      "byteOffset": 1593432,
      "componentType": 5126,
      "count": 17016,
      "max": [
        0.7293456792831421,
        1.3247190713882446,
        0.7332779169082642
      ],
      "min": [
        -0.854518711566925,
        -1.8718526363372803,
        -0.7733628153800964
      ],
      "type": "VEC3"
    },
    {
      "bufferView": 2,
      "byteOffset": 1797624,
      "componentType": 5126,
      "count": 17016,
      "max": [
        0.999963641166687,
        0.9999632835388184,
        0.9999985694885254
      ],
      "min": [
        -0.9999730587005615,
        -0.9999963045120239,
        -0.9999635219573975
      ],
      "type": "VEC3"
    },
    {
      "bufferView": 0,
      "byteOffset": 993792,
      "componentType": 5125,
      "count": 102012,
      "type": "SCALAR"
    },
    {
      "bufferView": 2,
      "byteOffset": 2001816,
      "componentType": 5126,
      "count": 7276,
      "max": [
        1.120613694190979,
        1.7002005577087402,
        1.1206138134002686
      ],
      "min": [
        -1.120613694190979,
        -1.101686716079712,
        -1.1206135749816895
      ],
      "type": "VEC3"
    },
    {
      "bufferView": 2,
      "byteOffset": 2089128,
      "componentType": 5126,
      "count": 7276,
      "max": [
        0.9958390593528748,
        1.0,
        0.9967440962791443
      ],
      "min": [
        -0.9953830242156982,
        -1.0,
        -0.9971340298652649
      ],
      "type": "VEC3"
    },
    {
      "bufferView": 1,
      "byteOffset": 378480,
      "componentType": 5126,
      "count": 7276,
      "max": [
        1.0000001192092896,
        0.9072768688201904
      ],
      "min": [
        0.0,
        0.014325011521577835
      ],
      "type": "VEC2"
    },
    {
      "bufferView": 0,
      "byteOffset": 1401840,
      "componentType": 5125,
      "count": 22272,
      "type": "SCALAR"
    },
    {
      "bufferView": 2,
      "byteOffset": 2176440,
      "componentType": 5126,
      "count": 1984,
      "max": [
        1.000000238418579,
        1.0,
        1.0000003576278687
      ],
      "min": [
        -0.9999998211860657,
        -1.0,
        -1.0
      ],
      "type": "VEC3"
    },
    {
      "bufferView": 2,
      "byteOffset": 2200248,
      "componentType": 5126,
      "count": 1984,
      "max": [
        0.9904383420944214,
        0.9951384663581848,
        0.9904382824897766
      ],
      "min": [
        -0.9904382228851318,
        -0.9951384663581848,
        -0.9904384016990662
      ],
      "type": "VEC3"
    },
    {
      "bufferView": 1,
      "byteOffset": 436688,
      "componentType": 5126,
      "count": 1984,
      "max": [
        1.000000238418579,
        1.0
      ],
      "min": [
        0.0,
        0.0
      ],
      "type": "VEC2"
    },
    {
      "bufferView": 0,
      "byteOffset": 1490928,
      "componentType": 5125,
      "count": 2880,
      "type": "SCALAR"
    }
  ],
  "asset": {
    "extras": {
      "author": "Felix Yadomi (https://sketchfab.com/felixyadomi)",
      "license": "CC-BY-4.0 (http://creativecommons.org/licenses/by/4.0/)",
      "source": "https://sketchfab.com/3d-models/boba-tea-2be1f3c8a0e54150bb61a438940b6921",
      "title": "Boba Tea"
    },
    "generator": "Sketchfab-12.67.0",
    "version": "2.0"
  },
  "bufferViews": [
    {
      "buffer": 0,
      "byteLength": 1502448,
      "name": "floatBufferViews",
      "target": 34963
    },
    {
      "buffer": 0,
      "byteLength": 452560,
      "byteOffset": 1502448,
      "byteStride": 8,
      "name": "floatBufferViews",
      "target": 34962
    },
    {
      "buffer": 0,
      "byteLength": 2224056,
      "byteOffset": 1955008,
      "byteStride": 12,
      "name": "floatBufferViews",
      "target": 34962
    }
  ],
  "buffers": [
    {
      "byteLength": 4179064,
      "uri": "scene.bin"
    }
  ],
  "extensionsUsed": [
    "KHR_materials_transmission"
  ],
  "materials": [
    {
      "alphaMode": "BLEND",
      "doubleSided": true,
      "name": "material_0",
      "pbrMetallicRoughness": {
        "baseColorFactor": [
          1.0,
          1.0,
          1.0,
          0.0
        ],
        "metallicFactor": 0.0,
        "roughnessFactor": 0.6
      }
    },
    {
      "doubleSided": true,
      "name": "boba",
      "pbrMetallicRoughness": {
        "baseColorFactor": [
          0.0123062,
          0.0123062,
          0.0123062,
          1.0
        ],
        "metallicFactor": 0.0,
        "roughnessFactor": 0.5
      }
    },
    {
      "doubleSided": true,
      "emissiveFactor": [
        1.0,
        1.0,
        1.0
      ],
      "name": "stars"
    },
    {
      "alphaMode": "BLEND",
      "doubleSided": true,
      "name": "pastic_transparent",
      "pbrMetallicRoughness": {
        "baseColorFactor": [
          0.8014945267390894,
          0.8014945267390894,
          0.8014945267390894,
          0.14763420462214766
        ],
        "roughnessFactor": 0.0984243231247226
      }
    },
    {
      "doubleSided": true,
      "name": "plastic_opaque",
      "pbrMetallicRoughness": {
        "baseColorFactor": [
          0.7999999999999999,
          0.2163169999999998,
          0.685186,
          1.0
        ],
        "metallicFactor": 0.0,
        "roughnessFactor": 0.5
      }
    },
    {
      "alphaMode": "BLEND",
      "doubleSided": true,
      "extensions": {
        "KHR_materials_transmission": {
          "transmissionFactor": 0.8888468343578425
        }
      },
      "name": "material",
      "pbrMetallicRoughness": {
        "baseColorFactor": [
          0.3550875991136283,
          0.1830297920813676,
          0.11099298766043206,
          0.25
        ],
        "metallicFactor": 0.0,
        "roughnessFactor": 0.0
      }
    },
    {
      "alphaMode": "BLEND",
      "doubleSided": true,
      "name": "pastic_transparent.001",
      "pbrMetallicRoughness": {
        "baseColorFactor": [
          1.0,
          1.0,
          1.0,
          0.0
        ]
      }
    }
  ],
  "meshes": [
    {
      "name": "Object_0",
      "primitives": [
        {
          "attributes": {
            "NORMAL": 1,
            "POSITION": 0,
            "TEXCOORD_0": 2
          },
          "indices": 3,
          "material": 1,
          "mode": 4
        }
      ]
    },
    {
      "name": "Object_1",
      "primitives": [
        {
          "attributes": {
            "NORMAL": 5,
            "POSITION": 4
          },
          "indices": 6,
          "material": 2,
          "mode": 4
        }
      ]
    },
    {
      "name": "Object_2",
      "primitives": [
        {
          "attributes": {
            "NORMAL": 8,
            "POSITION": 7
          },
          "indices": 9,
          "material": 2,
          "mode": 4
        }
      ]
    },
    {
      "name": "Object_3",
      "primitives": [
        {
          "attributes": {
            "NORMAL": 11,
            "POSITION": 10
          },
          "indices": 12,
          "material": 2,
          "mode": 4
        }
      ]
    },
    {
      "name": "Object_4",
      "primitives": [
        {
          "attributes": {
            "NORMAL": 14,
            "POSITION": 13,
            "TEXCOORD_0": 15
          },
          "indices": 16,
          "material": 3,
          "mode": 4
        }
      ]
    },
    {
      "name": "Object_5",
      "primitives": [
        {
          "attributes": {
            "NORMAL": 18,
            "POSITION": 17,
            "TEXCOORD_0": 19
          },
          "indices": 20,
          "material": 3,
          "mode": 4
        }
      ]
    },
    {
      "name": "Object_6",
      "primitives": [
        {
          "attributes": {
            "NORMAL": 22,
            "POSITION": 21,
            "TEXCOORD_0": 23
          },
          "indices": 24,
          "material": 4,
          "mode": 4
        }
      ]
    },
    {
      "name": "Object_7",
      "primitives": [
        {
          "attributes": {
            "NORMAL": 26,
            "POSITION": 25
          },
          "indices": 27,
          "material": 5,
          "mode": 4
        }
      ]
    },
    {
      "name": "Object_8",
      "primitives": [
        {
          "attributes": {
            "NORMAL": 29,
            "POSITION": 28,
            "TEXCOORD_0": 30
          },
          "indices": 31,
          "material": 6,
          "mode": 4
        }
      ]
    },
    {
      "name": "Object_9",
      "primitives": [
        {
          "attributes": {
            "NORMAL": 33,
            "POSITION": 32,
            "TEXCOORD_0": 34
          },
          "indices": 35,
          "material": 0,
          "mode": 4
        }
      ]
    }
  ],
  "nodes": [
    {
      "children": [
        1
      ],
      "matrix": [
        1.0,
        0.0,
        0.0,
        0.0,
        0.0,
        2.220446049250313e-16,
        -1.0,
        0.0,
        0.0,
        1.0,
        2.220446049250313e-16,
        0.0,
        0.0,
        0.0,
        0.0,
        1.0
      ],
      "name": "Sketchfab_model"
    },
    {
      "children": [
        2
      ],
      "name": "root"
    },
    {
      "children": [
        3,
        5,
        7,
        9,
        11,
        13,
        15,
        17,
        19,
        21
      ],
      "matrix": [
        1.0,
        0.0,
        0.0,
        0.0,
        0.0,
        2.220446049250313e-16,
        1.0,
        0.0,
        0.0,
        -1.0,
        2.220446049250313e-16,
        0.0,
        0.0,
        0.0,
        0.0,
        1.0
      ],
      "name": "GLTF_SceneRootNode"
    },
    {
      "children": [
        4
      ],
      "matrix": [
        0.10148728807103738,
        -0.0036639352018132633,
        0.02015232062311056,
        0.0,
        -0.02020840394601444,
        -0.03452504869881938,
        0.09549265354811025,
        0.0,
        0.0033407598636161513,
        -0.09753872080531907,
        -0.034557817155547094,
        0.0,
        -0.9342603087425232,
        1.337070345878601,
        -0.17158204317092896,
        1.0
      ],
      "name": "boba_0"
    },
    {
      "mesh": 0,
      "name": "Object_4"
    },
    {
      "children": [
        6
      ],
      "matrix": [
        -0.08867294768716805,
        0.16273168182438066,
        -0.08051665883686623,
        0.0,
        -0.1644461444013992,
        -0.034005182312778416,
        0.11237679235661135,
        0.0,
        0.07695454632292299,
        0.11484542545618953,
        0.14736332760627707,
        0.0,
        -0.17099538445472717,
        3.832007884979248,
        0.1121850460767746,
        1.0
      ],
      "name": "Star_1"
    },
    {
      "mesh": 1,
      "name": "Object_6"
    },
    {
      "children": [
        8
      ],
      "matrix": [
        -0.021013898671245545,
        0.13015122919673794,
        -0.04239122542400745,
        0.0,
        -0.13529009487928523,
        -0.01322913752723135,
        0.026448488417597817,
        0.0,
        0.020807412198752817,
        0.0454267379230077,
        0.1291564674707746,
        0.0,
        -0.03945168852806091,
        3.5196480751037598,
        0.3796348571777344,
        1.0
      ],
      "name": "Star.001_2"
    },
    {
      "mesh": 2,
      "name": "Object_8"
    },
    {
      "children": [
        10
      ],
      "matrix": [
        -0.19703091219663765,
        0.1375579724308656,
        0.0849955408966653,
        0.0,
        0.06772367906594198,
        -0.05146047351789882,
        0.24027680094368983,
        0.0,
        0.14683302082180125,
        0.20832002268231256,
        0.0032303353008877526,
        0.0,
        -1.7691564559936523,
        3.7463061809539795,
        -1.118934154510498,
        1.0
      ],
      "name": "Star.002_3"
    },
    {
      "mesh": 3,
      "name": "Object_10"
    },
    {
      "children": [
        12
      ],
      "matrix": [
        0.9281238666602929,
        0.37227152474443537,
        0.0,
        0.0,
        -0.37227152474443537,
        0.9281238666602929,
        0.0,
        0.0,
        0.0,
        0.0,
        1.0,
        0.0,
        0.10769643634557724,
        0.054487764835357666,
        0.0,
        1.0
      ],
      "name": "cup_5"
    },
    {
      "mesh": 4,
      "name": "Object_12"
    },
    {
      "children": [
        14
      ],
      "matrix": [
        0.9281238666602929,
        0.37227152474443537,
        0.0,
        0.0,
        -0.37227152474443537,
        0.9281238666602929,
        0.0,
        0.0,
        0.0,
        0.0,
        1.0,
        0.0,
        0.10769643634557724,
        0.054487764835357666,
        0.0,
        1.0
      ],
      "name": "cover_6"
    },
    {
      "mesh": 5,
      "name": "Object_14"
    },
    {
      "children": [
        16
      ],
      "matrix": [
        0.9502381499263893,
        0.31028096980372405,
        -0.027806082106857706,
        0.0,
        -0.3073848725236899,
        0.9483715043979721,
        0.07814108899626375,
        0.0,
        0.05061618879437401,
        -0.0657054748372433,
        0.9965544601316803,
        0.0,
        0.18249276280403137,
        -0.9303423166275024,
        -0.27133527398109436,
        1.0
      ],
      "name": "straw_7"
    },
    {
      "mesh": 6,
      "name": "Object_16"
    },
    {
      "children": [
        18
      ],
      "matrix": [
        1.0038082762172111,
        0.4026286263741134,
        0.0,
        0.0,
        -0.4026286263741134,
        1.0038082762172111,
        0.0,
        0.0,
        0.0,
        0.0,
        1.0815455913543701,
        0.0,
        -0.2692025303840637,
        0.9941485524177551,
        0.0,
        1.0
      ],
      "name": "domain_8"
    },
    {
      "mesh": 7,
      "name": "Object_18"
    },
    {
      "children": [
        20
      ],
      "matrix": [
        0.9281238666602929,
        0.37227152474443537,
        0.0,
        0.0,
        -0.37227152474443537,
        0.9281238666602929,
        0.0,
        0.0,
        0.0,
        0.0,
        1.0,
        0.0,
        0.10769643634557724,
        0.054487764835357666,
        0.0,
        1.0
      ],
      "name": "colision_9"
    },
    {
      "mesh": 8,
      "name": "Object_20"
    },
    {
      "children": [
        22
      ],
      "matrix": [
        0.6398208388087441,
        0.2566328566505604,
        0.0,
        0.0,
        -0.2566328566505604,
        0.6398208388087441,
        0.0,
        0.0,
        0.0,
        0.0,
        0.6893701553344727,
        0.0,
        -0.6595881581306458,
        1.6084342002868652,
        0.02901764214038849,
        1.0
      ],
      "name": "tea_10"
    },
    {
      "mesh": 9,
      "name": "Object_22"
    }
  ],
  "scene": 0,
  "scenes": [
    {
      "name": "Sketchfab_Scene",
      "nodes": [
        0
      ]
    }
  ]
}
