{
  "accessors": [
    {
      "bufferView": 2,
      "componentType": 5126,
      "count": 65532,
      "max": [
        0.1382260024547577,
        0.0001340000017080456,
        0.13483700156211853
      ],
      "min": [
        -0.12593500316143036,
        -0.057815998792648315,
        -0.1205039992928505
      ],
      "type": "VEC3"
    },
    {
      "bufferView": 2,
      "byteOffset": 786384,
      "componentType": 5126,
      "count": 65532,
      "max": [
        0.9999874830245972,
        1.0,
        0.9999940991401672
      ],
      "min": [
        -0.9997557401657104,
        -0.9999973773956299,
        -0.9999938607215881
      ],
      "type": "VEC3"
    },
    {
      "bufferView": 1,
      "componentType": 5126,
      "count": 65532,
      "max": [
        0.999675989151001,
        0.9909669756889343
      ],
      "min": [
        0.00024399999529123306,
        0.00024399999529123306
      ],
      "type": "VEC2"
    },
    {
      "bufferView": 0,
      "componentType": 5125,
      "count": 295044,
      "type": "SCALAR"
    },
    {
      "bufferView": 2,
      "byteOffset": 1572768,
      "componentType": 5126,
      "count": 65532,
      "max": [
        0.10365600138902664,
        -0.0,
        0.13435399532318115
      ],
      "min": [
        -0.10732799768447876,
        -0.11068599671125412,
        -0.09602600336074829
      ],
      "type": "VEC3"
    },
    {
      "bufferView": 2,
      "byteOffset": 2359152,
      "componentType": 5126,
      "count": 65532,
      "max": [
        0.9999980926513672,
        0.9998424649238586,
        0.9999788999557495
      ],
      "min": [
        -0.9999862313270569,
        -0.9999998807907104,
        -0.9999839067459106
      ],
      "type": "VEC3"
    },
    {
      "bufferView": 1,
      "byteOffset": 524256,
      "componentType": 5126,
      "count": 65532,
      "max": [
        0.9997149705886841,
        0.9937210083007813
      ],
      "min": [
        0.00024399999529123306,
        0.00030499999411404133
      ],
      "type": "VEC2"
    },
    {
      "bufferView": 0,
      "byteOffset": 1180176,
      "componentType": 5125,
      "count": 298425,
      "type": "SCALAR"
    },
    {
      "bufferView": 2,
      "byteOffset": 3145536,
      "componentType": 5126,
      "count": 65532,
      "max": [
        0.06975100189447403,
        -0.03719300031661987,
        0.1339779943227768
      ],
      "min": [
        -0.09825699776411057,
        -0.11059200018644333,
        0.011149999685585499
      ],
      "type": "VEC3"
    },
    {
      "bufferView": 2,
      "byteOffset": 3931920,
      "componentType": 5126,
      "count": 65532,
      "max": [
        0.9999706149101257,
        0.9999408721923828,
        0.9999995231628418
      ],
      "min": [
        -0.9999988675117493,
        -0.9999998807907104,
        -0.9996895790100098
      ],
      "type": "VEC3"
    },
    {
      "bufferView": 1,
      "byteOffset": 1048512,
      "componentType": 5126,
      "count": 65532,
      "max": [
        0.9997479915618896,
        0.9636229872703552
      ],
      "min": [
        0.00024399999529123306,
        0.0002500000118743628
      ],
      "type": "VEC2"
    },
    {
      "bufferView": 0,
      "byteOffset": 2373876,
      "componentType": 5125,
      "count": 284364,
      "type": "SCALAR"
    },
    {
      "bufferView": 2,
      "byteOffset": 4718304,
      "componentType": 5126,
      "count": 65532,
      "max": [
        0.13851100206375122,
        5.700000110664405e-05,
        0.13620199263095856
      ],
      "min": [
        -0.1315149962902069,
        -0.10865499824285507,
        -0.1355690062046051
      ],
      "type": "VEC3"
    },
    {
      "bufferView": 2,
      "byteOffset": 5504688,
      "componentType": 5126,
      "count": 65532,
      "max": [
        0.9999242424964905,
        0.9999993443489075,
        0.9999988675117493
      ],
      "min": [
        -0.9999866485595703,
        -0.9999956488609314,
        -0.9999961256980896
      ],
      "type": "VEC3"
    },
    {
      "bufferView": 1,
      "byteOffset": 1572768,
      "componentType": 5126,
      "count": 65532,
      "max": [
        0.9996600151062012,
        0.9724119901657104
      ],
      "min": [
        0.00024399999529123306,
        0.00024500000290572643
      ],
      "type": "VEC2"
    },
    {
      "bufferView": 0,
      "byteOffset": 3511332,
      "componentType": 5125,
      "count": 275976,
      "type": "SCALAR"
    },
    {
      "bufferView": 2,
      "byteOffset": 6291072,
      "componentType": 5126,
      "count": 65532,
      "max": [
        0.11520899832248688,
        0.0,
        0.11715800315141678
      ],
      "min": [
        -0.13144099712371826,
        -0.11021299660205841,
        -0.13572899997234344
      ],
      "type": "VEC3"
    },
    {
      "bufferView": 2,
      "byteOffset": 7077456,
      "componentType": 5126,
      "count": 65532,
      "max": [
        0.9999793767929077,
        1.0,
        0.9999650120735168
      ],
      "min": [
        -0.9999666213989258,
        -0.9999967813491821,
        -0.9999895095825195
      ],
      "type": "VEC3"
    },
    {
      "bufferView": 1,
      "byteOffset": 2097024,
      "componentType": 5126,
      "count": 65532,
      "max": [
        0.9997529983520508,
        0.9638950228691101
      ],
      "min": [
        0.00024399999529123306,
        0.0002479999966453761
      ],
      "type": "VEC2"
    },
    {
      "bufferView": 0,
      "byteOffset": 4615236,
      "componentType": 5125,
      "count": 266781,
      "type": "SCALAR"
    },
    {
      "bufferView": 2,
      "byteOffset": 7863840,
      "componentType": 5126,
      "count": 65532,
      "max": [
        0.11865200102329254,
        0.0001340000017080456,
        0.01408699993044138
      ],
      "min": [
        -0.07404199987649918,
        -0.10916599631309509,
        -0.13564099371433258
      ],
      "type": "VEC3"
    },
    {
      "bufferView": 2,
      "byteOffset": 8650224,
      "componentType": 5126,
      "count": 65532,
      "max": [
        0.9999655485153198,
        0.9999080896377563,
        0.9999358654022217
      ],
      "min": [
        -0.999929666519165,
        -0.9999991059303284,
        -0.9999997615814209
      ],
      "type": "VEC3"
    },
    {
      "bufferView": 1,
      "byteOffset": 2621280,
      "componentType": 5126,
      "count": 65532,
      "max": [
        0.9997270107269287,
        0.9978029727935791
      ],
      "min": [
        0.00024399999529123306,
        0.00024399999529123306
      ],
      "type": "VEC2"
    },
    {
      "bufferView": 0,
      "byteOffset": 5682360,
      "componentType": 5125,
      "count": 257517,
      "type": "SCALAR"
    },
    {
      "bufferView": 2,
      "byteOffset": 9436608,
      "componentType": 5126,
      "count": 43639,
      "max": [
        0.10365600138902664,
        -0.03713500127196312,
        0.01462399959564209
      ],
      "min": [
        -0.07199899852275848,
        -0.10987299680709839,
        -0.09573599696159363
      ],
      "type": "VEC3"
    },
    {
      "bufferView": 2,
      "byteOffset": 9960276,
      "componentType": 5126,
      "count": 43639,
      "max": [
        0.999997615814209,
        0.9999058842658997,
        0.9999309778213501
      ],
      "min": [
        -0.9999987483024597,
        -0.9999979734420776,
        -0.9999997615814209
      ],
      "type": "VEC3"
    },
    {
      "bufferView": 1,
      "byteOffset": 3145536,
      "componentType": 5126,
      "count": 43639,
      "max": [
        0.9997289776802063,
        0.986175000667572
      ],
      "min": [
        0.00024399999529123306,
        0.00026199998683296144
      ],
      "type": "VEC2"
    },
    {
      "bufferView": 0,
      "byteOffset": 6712428,
      "componentType": 5125,
      "count": 178191,
      "type": "SCALAR"
    }
  ],
  "asset": {
    "extras": {
      "author": "alban (https://sketchfab.com/alban)",
      "license": "CC-BY-4.0 (http://creativecommons.org/licenses/by/4.0/)",
      "source": "https://sketchfab.com/3d-models/club-sandwich-pile-82fa791d53d8483c8a35c80a6369a68a",
      "title": "Club sandwich pile"
    },
    "generator": "Sketchfab-15.35.0",
    "version": "2.0"
  },
  "bufferViews": [
    {
      "buffer": 0,
      "byteLength": 7425192,
      "name": "floatBufferViews",
      "target": 34963
    },
    {
      "buffer": 0,
      "byteLength": 3494648,
      "byteOffset": 7425192,
      "byteStride": 8,
      "name": "floatBufferViews",
      "target": 34962
    },
    {
      "buffer": 0,
      "byteLength": 10483944,
      "byteOffset": 10919840,
      "byteStride": 12,
      "name": "floatBufferViews",
      "target": 34962
    }
  ],
  "buffers": [
    {
      "byteLength": 21403784,
      "uri": "scene.bin"
    }
  ],
  "extensionsUsed": [
    "KHR_materials_unlit"
  ],
  "images": [
    {
      "uri": "textures/sand_baseColor.jpeg"
    }
  ],
  "materials": [
    {
      "doubleSided": true,
      "extensions": {
        "KHR_materials_unlit": {}
      },
      "name": "sand",
      "pbrMetallicRoughness": {
        "baseColorTexture": {
          "index": 0
        },
        "metallicFactor": 0.0
      }
    }
  ],
  "meshes": [
    {
      "name": "Object_0",
      "primitives": [
        {
          "attributes": {
            "NORMAL": 1,
            "POSITION": 0,
            "TEXCOORD_0": 2
          },
          "indices": 3,
          "material": 0,
          "mode": 4
        }
      ]
    },
    {
      "name": "Object_1",
      "primitives": [
        {
          "attributes": {
            "NORMAL": 5,
            "POSITION": 4,
            "TEXCOORD_0": 6
          },
          "indices": 7,
          "material": 0,
          "mode": 4
        }
      ]
    },
    {
      "name": "Object_2",
      "primitives": [
        {
          "attributes": {
            "NORMAL": 9,
            "POSITION": 8,
            "TEXCOORD_0": 10
          },
          "indices": 11,
          "material": 0,
          "mode": 4
        }
      ]
    },
    {
      "name": "Object_3",
      "primitives": [
        {
          "attributes": {
            "NORMAL": 13,
            "POSITION": 12,
            "TEXCOORD_0": 14
          },
          "indices": 15,
          "material": 0,
          "mode": 4
        }
      ]
    },
    {
      "name": "Object_4",
      "primitives": [
        {
          "attributes": {
            "NORMAL": 17,
            "POSITION": 16,
            "TEXCOORD_0": 18
          },
          "indices": 19,
          "material": 0,
          "mode": 4
        }
      ]
    },
    {
      "name": "Object_5",
      "primitives": [
        {
          "attributes": {
            "NORMAL": 21,
            "POSITION": 20,
            "TEXCOORD_0": 22
          },
          "indices": 23,
          "material": 0,
          "mode": 4
        }
      ]
    },
    {
      "name": "Object_6",
      "primitives": [
        {
          "attributes": {
            "NORMAL": 25,
            "POSITION": 24,
            "TEXCOORD_0": 26
          },
          "indices": 27,
          "material": 0,
          "mode": 4
        }
      ]
    }
  ],
  "nodes": [
    {
      "children": [
        1
      ],
      "matrix": [
        1.0,
        0.0,
        0.0,
        0.0,
        0.0,
        -1.0,
        0.0,
        0.0,
        0.0,
        0.0,
        -1.0,
        0.0,
        0.0,
        0.0,
        0.0,
        1.0
      ],
      "name": "Sketchfab_model"
    },
    {
      "children": [
        2,
        3,
        4,
        5,
        6,
        7,
        8
      ],
      "name": "sand.obj.cleaner.materialmerger.gles"
    },
    {
      "mesh": 0,
      "name": "Object_2"
    },
    {
      "mesh": 1,
      "name": "Object_3"
    },
    {
      "mesh": 2,
      "name": "Object_4"
    },
    {
      "mesh": 3,
      "name": "Object_5"
    },
    {
      "mesh": 4,
      "name": "Object_6"
    },
    {
      "mesh": 5,
      "name": "Object_7"
    },
    {
      "mesh": 6,
      "name": "Object_8"
    }
  ],
  "samplers": [
    {
      "magFilter": 9729,
      "minFilter": 9987,
      "wrapS": 10497,
      "wrapT": 10497
    }
  ],
  "scene": 0,
  "scenes": [
    {
      "name": "Sketchfab_Scene",
      "nodes": [
        0
      ]
    }
  ],
  "textures": [
    {
      "sampler": 0,
      "source": 0
    }
  ]
}
