{
  "accessors": [
    {
      "bufferView": 2,
      "componentType": 5126,
      "count": 20648,
      "max": [
        0.2831503748893738,
        0.2770855724811554,
        0.9640031456947327
      ],
      "min": [
        -0.28315040469169617,
        -0.27514582872390747,
        0.2722054123878479
      ],
      "type": "VEC3"
    },
    {
      "bufferView": 2,
      "byteOffset": 247776,
      "componentType": 5126,
      "count": 20648,
      "max": [
        0.9999891519546509,
        1.0,
        1.0
      ],
      "min": [
        -0.9999891519546509,
        -1.0,
        -1.0
      ],
      "type": "VEC3"
    },
    {
      "bufferView": 1,
      "componentType": 5126,
      "count": 20648,
      "max": [
        0.8157060742378235,
        0.9508691430091858
      ],
      "min": [
        0.2055811733007431,
        0.5239601731300354
      ],
      "type": "VEC2"
    },
    {
      "bufferView": 0,
      "componentType": 5125,
      "count": 113904,
      "type": "SCALAR"
    },
    {
      "bufferView": 2,
      "byteOffset": 495552,
      "componentType": 5126,
      "count": 32669,
      "max": [
        0.20770716667175293,
        0.16110989451408386,
        0.7916196584701538
      ],
      "min": [
        -0.18201199173927307,
        -0.12114357203245163,
        0.505528450012207
      ],
      "type": "VEC3"
    },
    {
      "bufferView": 2,
      "byteOffset": 887580,
      "componentType": 5126,
      "count": 32669,
      "max": [
        0.9999070167541504,
        1.0,
        0.9999828338623047
      ],
      "min": [
        -0.9998854398727417,
        -1.0,
        -0.9999998807907104
      ],
      "type": "VEC3"
    },
    {
      "bufferView": 1,
      "byteOffset": 165184,
      "componentType": 5126,
      "count": 32669,
      "max": [
        0.8921717405319214,
        0.9123303294181824
      ],
      "min": [
        0.1949062943458557,
        0.040246784687042236
      ],
      "type": "VEC2"
    },
    {
      "bufferView": 0,
      "byteOffset": 455616,
      "componentType": 5125,
      "count": 177408,
      "type": "SCALAR"
    }
  ],
  "asset": {
    "extras": {
      "author": "giga (https://sketchfab.com/gits3d)",
      "license": "CC-BY-4.0 (http://creativecommons.org/licenses/by/4.0/)",
      "source": "https://sketchfab.com/3d-models/candy-basket-a901ea83053643c19e601e1f7ad93d8c",
      "title": "Candy Basket"
    },
    "generator": "Sketchfab-12.66.0",
    "version": "2.0"
  },
  "bufferViews": [
    {
      "buffer": 0,
      "byteLength": 1165248,
      "name": "floatBufferViews",
      "target": 34963
    },
    {
      "buffer": 0,
      "byteLength": 426536,
      "byteOffset": 1165248,
      "byteStride": 8,
      "name": "floatBufferViews",
      "target": 34962
    },
    {
      "buffer": 0,
      "byteLength": 1279608,
      "byteOffset": 1591784,
      "byteStride": 12,
      "name": "floatBufferViews",
      "target": 34962
    }
  ],
  "buffers": [
    {
      "byteLength": 2871392,
      "uri": "scene.bin"
    }
  ],
  "images": [
    {
      "uri": "textures/Candy_Basket_baseColor.png"
    }
  ],
  "materials": [
    {
      "doubleSided": true,
      "name": "Candy_Basket",
      "pbrMetallicRoughness": {
        "baseColorTexture": {
          "index": 0
        },
        "metallicFactor": 0.0,
        "roughnessFactor": 0.6220305560391419
      }
    },
    {
      "doubleSided": true,
      "name": "Candy",
      "pbrMetallicRoughness": {
        "baseColorTexture": {
          "index": 0
        },
        "metallicFactor": 0.0,
        "roughnessFactor": 0.47029653970042296
      }
    }
  ],
  "meshes": [
    {
      "name": "Cylinder.001_Candy Basket_0",
      "primitives": [
        {
          "attributes": {
            "NORMAL": 1,
            "POSITION": 0,
            "TEXCOORD_0": 2
          },
          "indices": 3,
          "material": 0,
          "mode": 4
        }
      ]
    },
    {
      "name": "Cylinder.002_Candy_0",
      "primitives": [
        {
          "attributes": {
            "NORMAL": 5,
            "POSITION": 4,
            "TEXCOORD_0": 6
          },
          "indices": 7,
          "material": 1,
          "mode": 4
        }
      ]
    }
  ],
  "nodes": [
    {
      "children": [
        1
      ],
      "matrix": [
        1.0,
        0.0,
        0.0,
        0.0,
        0.0,
        2.220446049250313e-16,
        -1.0,
        0.0,
        0.0,
        1.0,
        2.220446049250313e-16,
        0.0,
        0.0,
        0.0,
        0.0,
        1.0
      ],
      "name": "Sketchfab_model"
    },
    {
      "children": [
        2
      ],
      "matrix": [
        0.009999999776482582,
        0.0,
        0.0,
        0.0,
        0.0,
        0.0,
        0.009999999776482582,
        0.0,
        0.0,
        -0.009999999776482582,
        0.0,
        0.0,
        0.0,
        0.0,
        0.0,
        1.0
      ],
      "name": "2a6e0b55bab0468c8da55d6931c0263d.fbx"
    },
    {
      "children": [
        3,
        5
      ],
      "name": "RootNode"
    },
    {
      "children": [
        4
      ],
      "matrix": [
        100.0,
        0.0,
        0.0,
        0.0,
        0.0,
        -1.629206793918314e-05,
        -99.99999999999868,
        0.0,
        0.0,
        99.99999999999868,
        -1.629206793918314e-05,
        0.0,
        0.0,
        -26.216495513916016,
        0.0,
        1.0
      ],
      "name": "Cylinder.001"
    },
    {
      "mesh": 0,
      "name": "Cylinder.001_Candy Basket_0"
    },
    {
      "children": [
        6
      ],
      "matrix": [
        100.0,
        0.0,
        0.0,
        0.0,
        0.0,
        -1.629206793918314e-05,
        -99.99999999999868,
        0.0,
        0.0,
        99.99999999999868,
        -1.629206793918314e-05,
        0.0,
        0.0,
        -26.216495513916016,
        0.0,
        1.0
      ],
      "name": "Cylinder.002"
    },
    {
      "mesh": 1,
      "name": "Cylinder.002_Candy_0"
    }
  ],
  "samplers": [
    {
      "magFilter": 9729,
      "minFilter": 9987,
      "wrapS": 10497,
      "wrapT": 10497
    }
  ],
  "scene": 0,
  "scenes": [
    {
      "name": "Sketchfab_Scene",
      "nodes": [
        0
      ]
    }
  ],
  "textures": [
    {
      "sampler": 0,
      "source": 0
    }
  ]
}
