{
  "accessors": [
    {
      "bufferView": 2,
      "componentType": 5126,
      "count": 65534,
      "max": [
        23.752864837646484,
        43.59766387939453,
        19.565366744995117
      ],
      "min": [
        -23.91083526611328,
        -44.09507751464844,
        -20.247316360473633
      ],
      "type": "VEC3"
    },
    {
      "bufferView": 2,
      "byteOffset": 786408,
      "componentType": 5126,
      "count": 65534,
      "max": [
        0.9999939799308777,
        0.9989248514175415,
        0.9992659687995911
      ],
      "min": [
        -0.9999579787254333,
        -0.999877393245697,
        -0.9993156790733337
      ],
      "type": "VEC3"
    },
    {
      "bufferView": 3,
      "componentType": 5126,
      "count": 65534,
      "max": [
        1.0,
        0.8352941274642944,
        0.6431372761726379,
        1.0
      ],
      "min": [
        0.027450980618596077,
        0.0,
        0.0,
        1.0
      ],
      "type": "VEC4"
    },
    {
      "bufferView": 1,
      "componentType": 5126,
      "count": 65534,
      "max": [
        0.8783037662506104,
        0.9794448018074036
      ],
      "min": [
        0.010726813226938248,
        0.00195312756113708
      ],
      "type": "VEC2"
    },
    {
      "bufferView": 0,
      "componentType": 5125,
      "count": 98301,
      "type": "SCALAR"
    },
    {
      "bufferView": 2,
      "byteOffset": 1572816,
      "componentType": 5126,
      "count": 65532,
      "max": [
        19.125246047973633,
        43.85781478881836,
        21.127710342407227
      ],
      "min": [
        -19.27850341796875,
        14.179560661315918,
        -13.487332344055176
      ],
      "type": "VEC3"
    },
    {
      "bufferView": 2,
      "byteOffset": 2359200,
      "componentType": 5126,
      "count": 65532,
      "max": [
        0.9999951720237732,
        0.9999998211860657,
        0.999998152256012
      ],
      "min": [
        -0.995934784412384,
        -0.7940850257873535,
        -0.9723352193832397
      ],
      "type": "VEC3"
    },
    {
      "bufferView": 3,
      "byteOffset": 1048544,
      "componentType": 5126,
      "count": 65532,
      "max": [
        1.0,
        0.9254902005195618,
        0.729411780834198,
        1.0
      ],
      "min": [
        0.16078431904315948,
        0.0,
        0.0,
        1.0
      ],
      "type": "VEC4"
    },
    {
      "bufferView": 1,
      "byteOffset": 524272,
      "componentType": 5126,
      "count": 65532,
      "max": [
        0.8940304517745972,
        0.9758329391479492
      ],
      "min": [
        0.00195312756113708,
        0.17007026076316833
      ],
      "type": "VEC2"
    },
    {
      "bufferView": 0,
      "byteOffset": 393204,
      "componentType": 5125,
      "count": 98298,
      "type": "SCALAR"
    },
    {
      "bufferView": 2,
      "byteOffset": 3145584,
      "componentType": 5126,
      "count": 65533,
      "max": [
        23.738086700439453,
        38.150840759277344,
        11.488430976867676
      ],
      "min": [
        -24.35045623779297,
        -41.615211486816406,
        -19.58208656311035
      ],
      "type": "VEC3"
    },
    {
      "bufferView": 2,
      "byteOffset": 3931980,
      "componentType": 5126,
      "count": 65533,
      "max": [
        0.9999887347221375,
        0.977910041809082,
        0.9999961256980896
      ],
      "min": [
        -0.9999967217445374,
        -0.8575142621994019,
        -0.9999930262565613
      ],
      "type": "VEC3"
    },
    {
      "bufferView": 3,
      "byteOffset": 2097056,
      "componentType": 5126,
      "count": 65533,
      "max": [
        0.9921568632125854,
        0.886274516582489,
        0.8313725590705872,
        1.0
      ],
      "min": [
        0.0,
        0.0,
        0.0,
        1.0
      ],
      "type": "VEC4"
    },
    {
      "bufferView": 1,
      "byteOffset": 1048528,
      "componentType": 5126,
      "count": 65533,
      "max": [
        0.8198661804199219,
        0.8901978135108948
      ],
      "min": [
        0.08099211007356644,
        0.054629288613796234
      ],
      "type": "VEC2"
    },
    {
      "bufferView": 0,
      "byteOffset": 786396,
      "componentType": 5125,
      "count": 98298,
      "type": "SCALAR"
    },
    {
      "bufferView": 2,
      "byteOffset": 4718376,
      "componentType": 5126,
      "count": 65534,
      "max": [
        23.706228256225586,
        43.603607177734375,
        20.09366226196289
      ],
      "min": [
        -23.929256439208984,
        -44.11579895019531,
        -20.729881286621094
      ],
      "type": "VEC3"
    },
    {
      "bufferView": 2,
      "byteOffset": 5504784,
      "componentType": 5126,
      "count": 65534,
      "max": [
        0.999947190284729,
        0.99990314245224,
        0.9999999403953552
      ],
      "min": [
        -0.9999980330467224,
        -0.999971866607666,
        -0.999977707862854
      ],
      "type": "VEC3"
    },
    {
      "bufferView": 3,
      "byteOffset": 3145584,
      "componentType": 5126,
      "count": 65534,
      "max": [
        1.0,
        0.9450980424880981,
        0.8666666746139526,
        1.0
      ],
      "min": [
        0.0,
        0.0,
        0.0,
        1.0
      ],
      "type": "VEC4"
    },
    {
      "bufferView": 1,
      "byteOffset": 1572792,
      "componentType": 5126,
      "count": 65534,
      "max": [
        0.8528023958206177,
        0.9704777002334595
      ],
      "min": [
        0.03984854742884636,
        0.06172684207558632
      ],
      "type": "VEC2"
    },
    {
      "bufferView": 0,
      "byteOffset": 1179588,
      "componentType": 5125,
      "count": 98298,
      "type": "SCALAR"
    },
    {
      "bufferView": 2,
      "byteOffset": 6291192,
      "componentType": 5126,
      "count": 65532,
      "max": [
        23.748838424682617,
        21.162940979003906,
        16.691524505615234
      ],
      "min": [
        -16.16063117980957,
        -44.21324920654297,
        -19.52507972717285
      ],
      "type": "VEC3"
    },
    {
      "bufferView": 2,
      "byteOffset": 7077576,
      "componentType": 5126,
      "count": 65532,
      "max": [
        0.9999727010726929,
        0.811700165271759,
        0.999893069267273
      ],
      "min": [
        -0.9997318387031555,
        -0.9991862773895264,
        -0.9999204277992249
      ],
      "type": "VEC3"
    },
    {
      "bufferView": 3,
      "byteOffset": 4194128,
      "componentType": 5126,
      "count": 65532,
      "max": [
        1.0,
        0.9372549057006836,
        0.7176470756530762,
        1.0
      ],
      "min": [
        0.0,
        0.0,
        0.0,
        1.0
      ],
      "type": "VEC4"
    },
    {
      "bufferView": 1,
      "byteOffset": 2097064,
      "componentType": 5126,
      "count": 65532,
      "max": [
        0.8430711030960083,
        0.9955114722251892
      ],
      "min": [
        0.06094447150826454,
        0.06222769245505333
      ],
      "type": "VEC2"
    },
    {
      "bufferView": 0,
      "byteOffset": 1572780,
      "componentType": 5125,
      "count": 98298,
      "type": "SCALAR"
    },
    {
      "bufferView": 2,
      "byteOffset": 7863960,
      "componentType": 5126,
      "count": 65534,
      "max": [
        23.753511428833008,
        35.87345504760742,
        19.974323272705078
      ],
      "min": [
        -24.149198532104492,
        -6.0483880043029785,
        -20.729881286621094
      ],
      "type": "VEC3"
    },
    {
      "bufferView": 2,
      "byteOffset": 8650368,
      "componentType": 5126,
      "count": 65534,
      "max": [
        0.9999982118606567,
        0.9737775921821594,
        0.999862015247345
      ],
      "min": [
        -0.999945878982544,
        -0.9990751147270203,
        -0.9999961256980896
      ],
      "type": "VEC3"
    },
    {
      "bufferView": 3,
      "byteOffset": 5242640,
      "componentType": 5126,
      "count": 65534,
      "max": [
        1.0,
        0.9254902005195618,
        0.7686274647712708,
        1.0
      ],
      "min": [
        0.11764705926179886,
        0.0,
        0.0,
        1.0
      ],
      "type": "VEC4"
    },
    {
      "bufferView": 1,
      "byteOffset": 2621320,
      "componentType": 5126,
      "count": 65534,
      "max": [
        0.7935159802436829,
        0.9980469346046448
      ],
      "min": [
        0.13918642699718475,
        0.01792030967772007
      ],
      "type": "VEC2"
    },
    {
      "bufferView": 0,
      "byteOffset": 1965972,
      "componentType": 5125,
      "count": 98298,
      "type": "SCALAR"
    },
    {
      "bufferView": 2,
      "byteOffset": 9436776,
      "componentType": 5126,
      "count": 6807,
      "max": [
        20.358835220336914,
        32.91912841796875,
        20.597578048706055
      ],
      "min": [
        -21.11665916442871,
        11.400753021240234,
        -6.587783336639404
      ],
      "type": "VEC3"
    },
    {
      "bufferView": 2,
      "byteOffset": 9518460,
      "componentType": 5126,
      "count": 6807,
      "max": [
        0.9488188624382019,
        0.8946405053138733,
        0.9991249442100525
      ],
      "min": [
        -0.9246327877044678,
        -0.621307373046875,
        -0.44334474205970764
      ],
      "type": "VEC3"
    },
    {
      "bufferView": 3,
      "byteOffset": 6291184,
      "componentType": 5126,
      "count": 6807,
      "max": [
        1.0,
        0.9333333373069763,
        0.6470588445663452,
        1.0
      ],
      "min": [
        0.30980393290519714,
        0.003921568859368563,
        0.0,
        1.0
      ],
      "type": "VEC4"
    },
    {
      "bufferView": 1,
      "byteOffset": 3145592,
      "componentType": 5126,
      "count": 6807,
      "max": [
        0.7274422645568848,
        0.9839456081390381
      ],
      "min": [
        0.21321123838424683,
        0.18322470784187317
      ],
      "type": "VEC2"
    },
    {
      "bufferView": 0,
      "byteOffset": 2359164,
      "componentType": 5125,
      "count": 10209,
      "type": "SCALAR"
    }
  ],
  "asset": {
    "extras": {
      "author": "CzernO (https://sketchfab.com/czernobog)",
      "license": "CC-BY-4.0 (http://creativecommons.org/licenses/by/4.0/)",
      "source": "https://sketchfab.com/3d-models/fried-chicken-wing-0651fa619e324cfcab1d97816d13bcbd",
      "title": "Fried chicken wing"
    },
    "generator": "Sketchfab-16.16.0",
    "version": "2.0"
  },
  "bufferViews": [
    {
      "buffer": 0,
      "byteLength": 2400000,
      "name": "floatBufferViews",
      "target": 34963
    },
    {
      "buffer": 0,
      "byteLength": 3200048,
      "byteOffset": 2400000,
      "byteStride": 8,
      "name": "floatBufferViews",
      "target": 34962
    },
    {
      "buffer": 0,
      "byteLength": 9600144,
      "byteOffset": 5600048,
      "byteStride": 12,
      "name": "floatBufferViews",
      "target": 34962
    },
    {
      "buffer": 0,
      "byteLength": 6400096,
      "byteOffset": 15200192,
      "byteStride": 16,
      "name": "floatBufferViews",
      "target": 34962
    }
  ],
  "buffers": [
    {
      "byteLength": 21600288,
      "uri": "scene.bin"
    }
  ],
  "extensionsUsed": [
    "KHR_materials_unlit"
  ],
  "images": [
    {
      "uri": "textures/tripo_node_60e4a93d-4f03-4701-bd50-b9f3ec33de65_baseColor.png"
    }
  ],
  "materials": [
    {
      "doubleSided": true,
      "emissiveFactor": [
        1.0,
        1.0,
        1.0
      ],
      "emissiveTexture": {
        "index": 0
      },
      "extensions": {
        "KHR_materials_unlit": {}
      },
      "name": "tripo_node_60e4a93d-4f03-4701-bd50-b9f3ec33de65",
      "pbrMetallicRoughness": {
        "baseColorTexture": {
          "index": 0
        },
        "metallicFactor": 0.0
      }
    }
  ],
  "meshes": [
    {
      "name": "tripo_node_60e4a93d-4f03-4701-bd50-b9f3ec33de65_tripo_node_60e4a93d-4f03-4701-bd50-b9f3ec33de65_0",
      "primitives": [
        {
          "attributes": {
            "COLOR_0": 2,
            "NORMAL": 1,
            "POSITION": 0,
            "TEXCOORD_0": 3
          },
          "indices": 4,
          "material": 0,
          "mode": 4
        }
      ]
    },
    {
      "name": "tripo_node_60e4a93d-4f03-4701-bd50-b9f3ec33de65_tripo_node_60e4a93d-4f03-4701-bd50-b9f3ec33de65_0",
      "primitives": [
        {
          "attributes": {
            "COLOR_0": 7,
            "NORMAL": 6,
            "POSITION": 5,
            "TEXCOORD_0": 8
          },
          "indices": 9,
          "material": 0,
          "mode": 4
        }
      ]
    },
    {
      "name": "tripo_node_60e4a93d-4f03-4701-bd50-b9f3ec33de65_tripo_node_60e4a93d-4f03-4701-bd50-b9f3ec33de65_0",
      "primitives": [
        {
          "attributes": {
            "COLOR_0": 12,
            "NORMAL": 11,
            "POSITION": 10,
            "TEXCOORD_0": 13
          },
          "indices": 14,
          "material": 0,
          "mode": 4
        }
      ]
    },
    {
      "name": "tripo_node_60e4a93d-4f03-4701-bd50-b9f3ec33de65_tripo_node_60e4a93d-4f03-4701-bd50-b9f3ec33de65_0",
      "primitives": [
        {
          "attributes": {
            "COLOR_0": 17,
            "NORMAL": 16,
            "POSITION": 15,
            "TEXCOORD_0": 18
          },
          "indices": 19,
          "material": 0,
          "mode": 4
        }
      ]
    },
    {
      "name": "tripo_node_60e4a93d-4f03-4701-bd50-b9f3ec33de65_tripo_node_60e4a93d-4f03-4701-bd50-b9f3ec33de65_0",
      "primitives": [
        {
          "attributes": {
            "COLOR_0": 22,
            "NORMAL": 21,
            "POSITION": 20,
            "TEXCOORD_0": 23
          },
          "indices": 24,
          "material": 0,
          "mode": 4
        }
      ]
    },
    {
      "name": "tripo_node_60e4a93d-4f03-4701-bd50-b9f3ec33de65_tripo_node_60e4a93d-4f03-4701-bd50-b9f3ec33de65_0",
      "primitives": [
        {
          "attributes": {
            "COLOR_0": 27,
            "NORMAL": 26,
            "POSITION": 25,
            "TEXCOORD_0": 28
          },
          "indices": 29,
          "material": 0,
          "mode": 4
        }
      ]
    },
    {
      "name": "tripo_node_60e4a93d-4f03-4701-bd50-b9f3ec33de65_tripo_node_60e4a93d-4f03-4701-bd50-b9f3ec33de65_0",
      "primitives": [
        {
          "attributes": {
            "COLOR_0": 32,
            "NORMAL": 31,
            "POSITION": 30,
            "TEXCOORD_0": 33
          },
          "indices": 34,
          "material": 0,
          "mode": 4
        }
      ]
    }
  ],
  "nodes": [
    {
      "children": [
        1
      ],
      "matrix": [
        1.0,
        0.0,
        0.0,
        0.0,
        0.0,
        2.220446049250313e-16,
        -1.0,
        0.0,
        0.0,
        1.0,
        2.220446049250313e-16,
        0.0,
        0.0,
        0.0,
        0.0,
        1.0
      ],
      "name": "Sketchfab_model"
    },
    {
      "children": [
        2
      ],
      "matrix": [
        0.009999999776482582,
        0.0,
        0.0,
        0.0,
        0.0,
        0.0,
        0.009999999776482582,
        0.0,
        0.0,
        -0.009999999776482582,
        0.0,
        0.0,
        0.0,
        0.0,
        0.0,
        1.0
      ],
      "name": "DINO NUGGET.fbx"
    },
    {
      "children": [
        3,
        11
      ],
      "name": "RootNode"
    },
    {
      "children": [
        4,
        5,
        6,
        7,
        8,
        9,
        10
      ],
      "name": "tripo_node_60e4a93d-4f03-4701-bd50-b9f3ec33de65"
    },
    {
      "mesh": 0,
      "name": "tripo_node_60e4a93d-4f03-4701-bd50-b9f3ec33de65_tripo_node_60e4a93d-4f03-4701-bd50-b9f3ec33de65_0"
    },
    {
      "mesh": 1,
      "name": "tripo_node_60e4a93d-4f03-4701-bd50-b9f3ec33de65_tripo_node_60e4a93d-4f03-4701-bd50-b9f3ec33de65_0"
    },
    {
      "mesh": 2,
      "name": "tripo_node_60e4a93d-4f03-4701-bd50-b9f3ec33de65_tripo_node_60e4a93d-4f03-4701-bd50-b9f3ec33de65_0"
    },
    {
      "mesh": 3,
      "name": "tripo_node_60e4a93d-4f03-4701-bd50-b9f3ec33de65_tripo_node_60e4a93d-4f03-4701-bd50-b9f3ec33de65_0"
    },
    {
      "mesh": 4,
      "name": "tripo_node_60e4a93d-4f03-4701-bd50-b9f3ec33de65_tripo_node_60e4a93d-4f03-4701-bd50-b9f3ec33de65_0"
    },
    {
      "mesh": 5,
      "name": "tripo_node_60e4a93d-4f03-4701-bd50-b9f3ec33de65_tripo_node_60e4a93d-4f03-4701-bd50-b9f3ec33de65_0"
    },
    {
      "mesh": 6,
      "name": "tripo_node_60e4a93d-4f03-4701-bd50-b9f3ec33de65_tripo_node_60e4a93d-4f03-4701-bd50-b9f3ec33de65_0"
    },
    {
      "children": [
        12
      ],
      "matrix": [
        -0.6859207071591005,
        -1.6574959296744574e-07,
        0.7276762903175642,
        0.0,
        -0.3240135424907181,
        0.8953956556469658,
        -0.3054207657169955,
        0.0,
        -0.6515581384442797,
        -0.4452714002139738,
        -0.6141704750136658,
        0.0,
        735.88916015625,
        495.8309326171875,
        692.5791015625,
        1.0
      ],
      "name": "Camera"
    },
    {
      "name": "Object_12"
    }
  ],
  "samplers": [
    {
      "magFilter": 9729,
      "minFilter": 9987,
      "wrapS": 10497,
      "wrapT": 10497
    }
  ],
  "scene": 0,
  "scenes": [
    {
      "name": "Sketchfab_Scene",
      "nodes": [
        0
      ]
    }
  ],
  "textures": [
    {
      "sampler": 0,
      "source": 0
    }
  ]
}
