{
  "accessors": [
    {
      "bufferView": 2,
      "componentType": 5126,
      "count": 34032,
      "max": [
        1.0113418102264404,
        6.613461494445801,
        1.000000238418579
      ],
      "min": [
        -3.436976432800293,
        -0.9999991655349731,
        -4.3561692237854
      ],
      "type": "VEC3"
    },
    {
      "bufferView": 2,
      "byteOffset": 408384,
      "componentType": 5126,
      "count": 34032,
      "max": [
        1.0,
        1.0,
        1.0
      ],
      "min": [
        -1.0,
        -1.0,
        -1.0
      ],
      "type": "VEC3"
    },
    {
      "bufferView": 1,
      "componentType": 5126,
      "count": 34032,
      "max": [
        0.7023292183876038,
        0.9904481172561646
      ],
      "min": [
        0.009551933035254478,
        0.009551933035254478
      ],
      "type": "VEC2"
    },
    {
      "bufferView": 0,
      "componentType": 5125,
      "count": 131094,
      "type": "SCALAR"
    },
    {
      "bufferView": 2,
      "byteOffset": 816768,
      "componentType": 5126,
      "count": 21027,
      "max": [
        0.9957212805747986,
        6.481562614440918,
        0.9924221038818359
      ],
      "min": [
        -3.2765121459960938,
        -0.9942077994346619,
        -4.224654197692871
      ],
      "type": "VEC3"
    },
    {
      "bufferView": 2,
      "byteOffset": 1069092,
      "componentType": 5126,
      "count": 21027,
      "max": [
        1.0,
        1.0,
        1.0
      ],
      "min": [
        -1.0,
        -1.0,
        -1.0
      ],
      "type": "VEC3"
    },
    {
      "bufferView": 1,
      "byteOffset": 272256,
      "componentType": 5126,
      "count": 21027,
      "max": [
        0.6178793907165527,
        0.9501835107803345
      ],
      "min": [
        0.08647750318050385,
        0.07956181466579437
      ],
      "type": "VEC2"
    },
    {
      "bufferView": 0,
      "byteOffset": 524376,
      "componentType": 5125,
      "count": 74844,
      "type": "SCALAR"
    }
  ],
  "asset": {
    "extras": {
      "author": "LW (https://sketchfab.com/kelly7y001)",
      "license": "CC-BY-4.0 (http://creativecommons.org/licenses/by/4.0/)",
      "source": "https://sketchfab.com/3d-models/dice-free-f0f73ea0319444f2a0e35b01d7831da4",
      "title": "Dice - Free"
    },
    "generator": "Sketchfab-16.14.0",
    "version": "2.0"
  },
  "bufferViews": [
    {
      "buffer": 0,
      "byteLength": 823752,
      "name": "floatBufferViews",
      "target": 34963
    },
    {
      "buffer": 0,
      "byteLength": 440472,
      "byteOffset": 823752,
      "byteStride": 8,
      "name": "floatBufferViews",
      "target": 34962
    },
    {
      "buffer": 0,
      "byteLength": 1321416,
      "byteOffset": 1264224,
      "byteStride": 12,
      "name": "floatBufferViews",
      "target": 34962
    }
  ],
  "buffers": [
    {
      "byteLength": 2585640,
      "uri": "scene.bin"
    }
  ],
  "extensionsUsed": [
    "KHR_materials_specular"
  ],
  "images": [
    {
      "uri": "textures/Point_Material_baseColor.png"
    },
    {
      "uri": "textures/Point_Material_metallicRoughness.png"
    },
    {
      "uri": "textures/Point_Material_specularf0.png"
    }
  ],
  "materials": [
    {
      "doubleSided": true,
      "name": "Body.Material",
      "pbrMetallicRoughness": {
        "baseColorFactor": [
          0.8,
          0.8,
          0.8,
          1.0
        ],
        "metallicFactor": 0.0,
        "roughnessFactor": 0.8040408205773457
      }
    },
    {
      "doubleSided": true,
      "extensions": {
        "KHR_materials_specular": {
          "specularColorFactor": [
            1.0,
            1.0,
            1.0
          ],
          "specularFactor": 1.0,
          "specularTexture": {
            "index": 2
          }
        }
      },
      "name": "Point_Material",
      "pbrMetallicRoughness": {
        "baseColorTexture": {
          "index": 0
        },
        "metallicRoughnessTexture": {
          "index": 1
        }
      }
    }
  ],
  "meshes": [
    {
      "name": "dice_Body.Material_0",
      "primitives": [
        {
          "attributes": {
            "NORMAL": 1,
            "POSITION": 0,
            "TEXCOORD_0": 2
          },
          "indices": 3,
          "material": 0,
          "mode": 4
        }
      ]
    },
    {
      "name": "dice_Point_Material_0",
      "primitives": [
        {
          "attributes": {
            "NORMAL": 5,
            "POSITION": 4,
            "TEXCOORD_0": 6
          },
          "indices": 7,
          "material": 1,
          "mode": 4
        }
      ]
    }
  ],
  "nodes": [
    {
      "children": [
        1
      ],
      "matrix": [
        0.028081661090254784,
        0.0,
        0.0,
        0.0,
        0.0,
        6.235381342424247e-18,
        -0.028081661090254784,
        0.0,
        0.0,
        0.028081661090254784,
        6.235381342424247e-18,
        0.0,
        0.0,
        0.0,
        0.0,
        1.0
      ],
      "name": "Sketchfab_model"
    },
    {
      "children": [
        2
      ],
      "matrix": [
        0.009999999776482582,
        0.0,
        0.0,
        0.0,
        0.0,
        0.0,
        0.009999999776482582,
        0.0,
        0.0,
        -0.009999999776482582,
        0.0,
        0.0,
        0.0,
        0.0,
        0.0,
        1.0
      ],
      "name": "47a9999045d046a3b77301fce1c804ff.fbx"
    },
    {
      "children": [
        3
      ],
      "name": "RootNode"
    },
    {
      "children": [
        4,
        5
      ],
      "matrix": [
        -11.647244868333667,
        -13.350811205244746,
        -55.38234676926867,
        0.0,
        48.87263412039533,
        -31.388218297853413,
        -2.71157452071721,
        0.0,
        -29.273102901344586,
        -47.09185512402614,
        17.508565836931307,
        0.0,
        -192.03367614746094,
        0.0,
        12.967947006225586,
        1.0
      ],
      "name": "dice"
    },
    {
      "mesh": 0,
      "name": "dice_Body.Material_0"
    },
    {
      "mesh": 1,
      "name": "dice_Point_Material_0"
    }
  ],
  "samplers": [
    {
      "magFilter": 9729,
      "minFilter": 9987,
      "wrapS": 10497,
      "wrapT": 10497
    }
  ],
  "scene": 0,
  "scenes": [
    {
      "name": "Sketchfab_Scene",
      "nodes": [
        0
      ]
    }
  ],
  "textures": [
    {
      "sampler": 0,
      "source": 0
    },
    {
      "sampler": 0,
      "source": 1
    },
    {
      "sampler": 0,
      "source": 2
    }
  ]
}
